<svg id="visual" viewBox="0 0 900 600" width="900" height="600" xmlns="http://www.w3.org/2000/svg" xmlns:xlink="http://www.w3.org/1999/xlink" version="1.1"><path d="M496 600L624 600L624 560L588 560L588 520L538 520L538 480L651 480L651 440L597 440L597 400L624 400L624 360L546 360L546 320L456 320L456 280L585 280L585 240L589 240L589 200L590 200L590 160L562 160L562 120L523 120L523 80L604 80L604 40L585 40L585 0L900 0L900 40L900 40L900 80L900 80L900 120L900 120L900 160L900 160L900 200L900 200L900 240L900 240L900 280L900 280L900 320L900 320L900 360L900 360L900 400L900 400L900 440L900 440L900 480L900 480L900 520L900 520L900 560L900 560L900 600L900 600Z" fill="#560090"></path><path d="M560 600L575 600L575 560L641 560L641 520L503 520L503 480L619 480L619 440L496 440L496 400L496 400L496 360L618 360L618 320L518 320L518 280L634 280L634 240L508 240L508 200L525 200L525 160L640 160L640 120L677 120L677 80L478 80L478 40L502 40L502 0L900 0L900 40L900 40L900 80L900 80L900 120L900 120L900 160L900 160L900 200L900 200L900 240L900 240L900 280L900 280L900 320L900 320L900 360L900 360L900 400L900 400L900 440L900 440L900 480L900 480L900 520L900 520L900 560L900 560L900 600L900 600Z" fill="#5d009c"></path><path d="M604 600L604 600L604 560L594 560L594 520L526 520L526 480L533 480L533 440L587 440L587 400L535 400L535 360L632 360L632 320L642 320L642 280L667 280L667 240L641 240L641 200L666 200L666 160L655 160L655 120L602 120L602 80L564 80L564 40L643 40L643 0L900 0L900 40L900 40L900 80L900 80L900 120L900 120L900 160L900 160L900 200L900 200L900 240L900 240L900 280L900 280L900 320L900 320L900 360L900 360L900 400L900 400L900 440L900 440L900 480L900 480L900 520L900 520L900 560L900 560L900 600L900 600Z" fill="#6400a8"></path><path d="M628 600L727 600L727 560L572 560L572 520L680 520L680 480L668 480L668 440L602 440L602 400L592 400L592 360L633 360L633 320L636 320L636 280L621 280L621 240L575 240L575 200L699 200L699 160L593 160L593 120L680 120L680 80L648 80L648 40L692 40L692 0L900 0L900 40L900 40L900 80L900 80L900 120L900 120L900 160L900 160L900 200L900 200L900 240L900 240L900 280L900 280L900 320L900 320L900 360L900 360L900 400L900 400L900 440L900 440L900 480L900 480L900 520L900 520L900 560L900 560L900 600L900 600Z" fill="#6c00b4"></path><path d="M625 600L737 600L737 560L685 560L685 520L703 520L703 480L649 480L649 440L696 440L696 400L644 400L644 360L689 360L689 320L661 320L661 280L611 280L611 240L689 240L689 200L621 200L621 160L690 160L690 120L632 120L632 80L747 80L747 40L725 40L725 0L900 0L900 40L900 40L900 80L900 80L900 120L900 120L900 160L900 160L900 200L900 200L900 240L900 240L900 280L900 280L900 320L900 320L900 360L900 360L900 400L900 400L900 440L900 440L900 480L900 480L900 520L900 520L900 560L900 560L900 600L900 600Z" fill="#7300c0"></path><path d="M723 600L778 600L778 560L667 560L667 520L677 520L677 480L759 480L759 440L734 440L734 400L711 400L711 360L677 360L677 320L699 320L699 280L746 280L746 240L726 240L726 200L676 200L676 160L757 160L757 120L727 120L727 80L720 80L720 40L776 40L776 0L900 0L900 40L900 40L900 80L900 80L900 120L900 120L900 160L900 160L900 200L900 200L900 240L900 240L900 280L900 280L900 320L900 320L900 360L900 360L900 400L900 400L900 440L900 440L900 480L900 480L900 520L900 520L900 560L900 560L900 600L900 600Z" fill="#7b00cc"></path><path d="M710 600L734 600L734 560L789 560L789 520L732 520L732 480L790 480L790 440L764 440L764 400L711 400L711 360L718 360L718 320L750 320L750 280L724 280L724 240L752 240L752 200L780 200L780 160L727 160L727 120L694 120L694 80L702 80L702 40L704 40L704 0L900 0L900 40L900 40L900 80L900 80L900 120L900 120L900 160L900 160L900 200L900 200L900 240L900 240L900 280L900 280L900 320L900 320L900 360L900 360L900 400L900 400L900 440L900 440L900 480L900 480L900 520L900 520L900 560L900 560L900 600L900 600Z" fill="#8200d9"></path><path d="M746 600L738 600L738 560L788 560L788 520L797 520L797 480L788 480L788 440L766 440L766 400L765 400L765 360L754 360L754 320L829 320L829 280L825 280L825 240L796 240L796 200L773 200L773 160L806 160L806 120L806 120L806 80L811 80L811 40L790 40L790 0L900 0L900 40L900 40L900 80L900 80L900 120L900 120L900 160L900 160L900 200L900 200L900 240L900 240L900 280L900 280L900 320L900 320L900 360L900 360L900 400L900 400L900 440L900 440L900 480L900 480L900 520L900 520L900 560L900 560L900 600L900 600Z" fill="#8a00e5"></path><path d="M812 600L792 600L792 560L838 560L838 520L845 520L845 480L846 480L846 440L783 440L783 400L839 400L839 360L844 360L844 320L783 320L783 280L820 280L820 240L828 240L828 200L794 200L794 160L817 160L817 120L820 120L820 80L846 80L846 40L821 40L821 0L900 0L900 40L900 40L900 80L900 80L900 120L900 120L900 160L900 160L900 200L900 200L900 240L900 240L900 280L900 280L900 320L900 320L900 360L900 360L900 400L900 400L900 440L900 440L900 480L900 480L900 520L900 520L900 560L900 560L900 600L900 600Z" fill="#9100f2"></path><path d="M835 600L845 600L845 560L878 560L878 520L850 520L850 480L866 480L866 440L841 440L841 400L871 400L871 360L833 360L833 320L869 320L869 280L864 280L864 240L870 240L870 200L827 200L827 160L835 160L835 120L846 120L846 80L827 80L827 40L856 40L856 0L900 0L900 40L900 40L900 80L900 80L900 120L900 120L900 160L900 160L900 200L900 200L900 240L900 240L900 280L900 280L900 320L900 320L900 360L900 360L900 400L900 400L900 440L900 440L900 480L900 480L900 520L900 520L900 560L900 560L900 600L900 600Z" fill="#9900ff"></path></svg>