<svg xmlns="http://www.w3.org/2000/svg" version="1.1" xmlns:xlink="http://www.w3.org/1999/xlink" xmlns:svgjs="http://svgjs.dev/svgjs" width="1440" height="560" preserveAspectRatio="none" viewBox="0 0 1440 560"><g mask="url(&quot;#SvgjsMask1007&quot;)" fill="none"><path d="M815.82 584.75C923.02 584.16 1009.34 495.98 1234.06 490.09 1458.77 484.2 1532.59 262.77 1652.29 254.89" stroke="rgba(148, 0, 187, 0.24)" stroke-width="2"></path><path d="M61.72 642.01C268.16 623.82 403 199.99 761.8 198.05 1120.59 196.11 1283.91 326.32 1461.87 326.85" stroke="rgba(148, 0, 187, 0.24)" stroke-width="2"></path><path d="M536.79 574.61C679.48 562.58 775.8 272.64 1023.03 271.89 1270.26 271.14 1383.87 394.14 1509.27 395.09" stroke="rgba(148, 0, 187, 0.24)" stroke-width="2"></path><path d="M417.94 655.28C514.9 652.99 491.74 523.36 780.61 517.54 1069.48 511.72 1314.02 269.09 1505.95 265.54" stroke="rgba(148, 0, 187, 0.24)" stroke-width="2"></path><path d="M864.13 610.35C934.28 606.44 905.29 489.16 1112.84 479.47 1320.39 469.78 1472.84 250.1 1610.27 244.27" stroke="rgba(148, 0, 187, 0.24)" stroke-width="2"></path></g><defs><mask id="SvgjsMask1007"><rect width="1440" height="560" fill="#ffffff"></rect></mask></defs></svg>