<svg xmlns="http://www.w3.org/2000/svg" version="1.1" xmlns:xlink="http://www.w3.org/1999/xlink" xmlns:svgjs="http://svgjs.dev/svgjs" width="1440" height="560" preserveAspectRatio="none" viewBox="0 0 1440 560"><g mask="url(&quot;#SvgjsMask1003&quot;)" fill="none"><path d="M -663.2543803462981,441 C -567.25,408 -375.25,264.8 -183.2543803462981,276 C 8.75,287.2 104.75,533.4 296.7456196537019,497 C 488.75,460.6 584.75,108.8 776.7456196537019,94 C 968.75,79.2 1124.09,398.2 1256.7456196537019,423 C 1389.4,447.8 1403.35,259 1440,218" stroke="rgba(148, 0, 187, 0.58)" stroke-width="2"></path><path d="M -134.90327907241806,284 C -38.9,243.2 153.1,41.8 345.09672092758194,80 C 537.1,118.2 633.1,438 825.0967209275819,475 C 1017.1,512 1113.1,273.2 1305.0967209275818,265 C 1497.1,256.8 1758.12,437.6 1785.0967209275818,434 C 1812.08,430.4 1509.02,284.4 1440,247" stroke="rgba(148, 0, 187, 0.58)" stroke-width="2"></path><path d="M -192.34225791554013,203 C -96.34,230.8 95.66,360.8 287.65774208445987,342 C 479.66,323.2 575.66,119.2 767.6577420844599,109 C 959.66,98.8 1055.66,258.8 1247.6577420844599,291 C 1439.66,323.2 1689.19,230 1727.6577420844599,270 C 1766.13,310 1497.53,446.8 1440,491" stroke="rgba(148, 0, 187, 0.58)" stroke-width="2"></path><path d="M -193.71067715540215,192 C -97.71,253.2 94.29,510.6 286.28932284459785,498 C 478.29,485.4 574.29,149.8 766.2893228445978,129 C 958.29,108.2 1054.29,372.8 1246.2893228445978,394 C 1438.29,415.2 1687.55,242.6 1726.2893228445978,235 C 1765.03,227.4 1497.26,331.8 1440,356" stroke="rgba(148, 0, 187, 0.58)" stroke-width="2"></path></g><defs><mask id="SvgjsMask1003"><rect width="1440" height="560" fill="#ffffff"></rect></mask></defs></svg>