<svg xmlns="http://www.w3.org/2000/svg" version="1.1" xmlns:xlink="http://www.w3.org/1999/xlink" xmlns:svgjs="http://svgjs.dev/svgjs" width="1440" height="560" preserveAspectRatio="none" viewBox="0 0 1440 560"><g mask="url(&quot;#SvgjsMask1004&quot;)" fill="none"><path d="M -439.55646384267476,241 C -343.56,277.2 -151.56,456.4 40.44353615732522,422 C 232.44,387.6 328.44,54.6 520.4435361573252,69 C 712.44,83.4 808.44,490 1000.4435361573252,494 C 1192.44,498 1392.53,122 1480.4435361573253,89 C 1568.35,56 1448.09,281 1440,329" stroke="rgba(148, 0, 187, 0.24)" stroke-width="2"></path><path d="M -860.3418291282254,448 C -764.34,410 -572.34,271.2 -380.3418291282254,258 C -188.34,244.8 -92.34,394.4 99.65817087177459,382 C 291.66,369.6 387.66,204.8 579.6581708717746,196 C 771.66,187.2 887.59,363.8 1059.6581708717745,338 C 1231.73,312.2 1363.93,121.2 1440,67" stroke="rgba(148, 0, 187, 0.24)" stroke-width="2"></path><path d="M -653.6532816971292,140 C -557.65,177.8 -365.65,312.4 -173.6532816971291,329 C 18.35,345.6 114.35,206.4 306.3467183028709,223 C 498.35,239.6 594.35,402.8 786.3467183028708,412 C 978.35,421.2 1135.62,260.6 1266.3467183028708,269 C 1397.08,277.4 1405.27,417 1440,454" stroke="rgba(148, 0, 187, 0.24)" stroke-width="2"></path><path d="M -684.2270803745715,68 C -588.23,149.2 -396.23,466.8 -204.22708037457153,474 C -12.23,481.2 83.77,130.2 275.7729196254285,104 C 467.77,77.8 563.77,336.6 755.7729196254285,343 C 947.77,349.4 1098.93,137.8 1235.7729196254286,136 C 1372.62,134.2 1399.15,294.4 1440,334" stroke="rgba(148, 0, 187, 0.24)" stroke-width="2"></path></g><defs><mask id="SvgjsMask1004"><rect width="1440" height="560" fill="#ffffff"></rect></mask></defs></svg>