<svg xmlns="http://www.w3.org/2000/svg" version="1.1" xmlns:xlink="http://www.w3.org/1999/xlink" xmlns:svgjs="http://svgjs.dev/svgjs" width="1440" height="560" preserveAspectRatio="none" viewBox="0 0 1440 560"><g mask="url(&quot;#SvgjsMask1044&quot;)" fill="none"><path d="M -8.231029749723177,410 C 49.37,381.4 164.57,282 279.7689702502768,267 C 394.97,252 452.57,341.2 567.7689702502769,335 C 682.97,328.8 740.57,199.8 855.7689702502769,236 C 970.97,272.2 1028.57,554.4 1143.7689702502769,516 C 1258.97,477.6 1316.57,74.4 1431.7689702502769,44 C 1546.97,13.6 1718.12,353.6 1719.7689702502769,364 C 1721.42,374.4 1495.95,149.6 1440,96" stroke="rgba(148, 0, 187, 0.24)" stroke-width="2"></path><path d="M -160.29689420092708,342 C -102.7,316.4 12.5,204 127.70310579907292,214 C 242.9,224 300.5,381.4 415.7031057990729,392 C 530.9,402.6 588.5,277 703.7031057990729,267 C 818.9,257 876.5,352.4 991.7031057990729,342 C 1106.9,331.6 1164.5,225 1279.703105799073,215 C 1394.9,205 1535.64,312.6 1567.703105799073,292 C 1599.76,271.4 1465.54,148 1440,112" stroke="rgba(148, 0, 187, 0.24)" stroke-width="2"></path><path d="M -57.75534651109302,56 C -0.16,151.4 115.04,513.6 230.24465348890698,533 C 345.44,552.4 403.04,172.4 518.244653488907,153 C 633.44,133.6 691.04,451.6 806.244653488907,436 C 921.44,420.4 979.04,73.4 1094.244653488907,75 C 1209.44,76.6 1267.04,457.2 1382.244653488907,444 C 1497.44,430.8 1658.69,8.2 1670.244653488907,9 C 1681.8,9.8 1486.05,360.2 1440,448" stroke="rgba(148, 0, 187, 0.24)" stroke-width="2"></path><path d="M -207.57016394540565,417 C -149.97,351.6 -34.77,99.8 80.42983605459435,90 C 195.63,80.2 253.23,366 368.4298360545944,368 C 483.63,370 541.23,88.4 656.4298360545944,100 C 771.63,111.6 829.23,395.2 944.4298360545944,426 C 1059.63,456.8 1117.23,231.6 1232.4298360545943,254 C 1347.63,276.4 1478.92,567.4 1520.4298360545943,538 C 1561.94,508.6 1456.09,193.2 1440,107" stroke="rgba(148, 0, 187, 0.24)" stroke-width="2"></path><path d="M -534.9989043579392,451 C -477.4,368.4 -362.2,56.8 -246.99890435793918,38 C -131.8,19.2 -74.2,341.8 41.00109564206082,357 C 156.2,372.2 213.8,81 329.0010956420608,114 C 444.2,147 501.8,499 617.0010956420608,522 C 732.2,545 789.8,266.8 905.0010956420608,229 C 1020.2,191.2 1086,336.2 1193.0010956420608,333 C 1300,329.8 1390.6,237 1440,213" stroke="rgba(148, 0, 187, 0.24)" stroke-width="2"></path><path d="M -186.6710830789898,402 C -129.07,363 -13.87,217 101.32891692101019,207 C 216.53,197 274.13,360.8 389.3289169210102,352 C 504.53,343.2 562.13,161.6 677.3289169210102,163 C 792.53,164.4 850.13,367 965.3289169210102,359 C 1080.53,351 1138.13,120.4 1253.3289169210102,123 C 1368.53,125.6 1503.99,367.6 1541.3289169210102,372 C 1578.66,376.4 1460.27,190.4 1440,145" stroke="rgba(148, 0, 187, 0.24)" stroke-width="2"></path></g><defs><mask id="SvgjsMask1044"><rect width="1440" height="560" fill="#ffffff"></rect></mask></defs></svg>